# xmcd
#
# Track frame offsets:
#	150
#	15350
#	30577
#	45925
#	61460
#	80072
#	97190
#	111847
#	132632
#	148872
#	166980
#
# Disc length: 2435 seconds
#
# Revision: 1
# Processed by: cddbd v1.5.2PL0 Copyright (c) Steve Scherf et al.
# Submitted via: EZCDAudioConverter 4.0.5.1
#
DISCID=9409810b
DTITLE=Travis Tritt - The Restless Kind
DYEAR=1996
DGENRE=Country
TTITLE0=Restless Kind
TTITLE1=Still in Love With You
TTITLE2=More Than You'll Ever Know
TTITLE3=Draggin' My Heart Around
TTITLE4=Helping Me Get Over You
TTITLE5=Back Up Against the Wall
TTITLE6=Double Trouble
TTITLE7=Did You Fall Far Enough
TTITLE8=She's Going Home With Me
TTITLE9=Sack Full of Stones
TTITLE10=Where Corn Don't Grow
EXTD=
EXTT0=
EXTT1=
EXTT2=
EXTT3=
EXTT4=
EXTT5=
EXTT6=
EXTT7=
EXTT8=
EXTT9=
EXTT10=
PLAYORDER=
